<?xml version="1.0" encoding="utf-8"?>
<!-- Generator: Adobe Illustrator 23.1.0, SVG Export Plug-In . SVG Version: 6.00 Build 0)  -->
<svg version="1.1" id="NER-RGB" xmlns="http://www.w3.org/2000/svg" xmlns:xlink="http://www.w3.org/1999/xlink" x="0px" y="0px"
	 viewBox="0 0 448.7 159.5" style="enable-background:new 0 0 448.7 159.5;" xml:space="preserve">
<style type="text/css">
	.st0{fill:#FFFFFF;}
	.st1{fill:#2E2D62;}
	.st2{fill:#3E863E;}
	.st3{fill:#67C04D;}
</style>
<g>
	<g>
		<g>
			<path class="st0" d="M238.5,51.6v17.1h-3.2l-6.7-11.1h-0.3v11.1H225V51.6h3.2l6.7,10.8h0.3V51.6H238.5z"/>
			<path class="st0" d="M252.6,66.3v2.4h-0.7c-1.4,0-2.4-0.5-2.9-1.6c-0.7,1-1.9,1.7-3.9,1.7c-2.7,0-4.5-1.4-4.5-3.6
				c0-3.8,5.2-4.1,7.5-4.3c-0.1-1.4-0.9-1.9-2.1-1.9c-1.8,0-1.9,1-1.9,1h-3c0.2-2.2,2-3.7,5-3.7c2.9,0,5,1.5,5,5v3.2
				C251.2,66,251.7,66.3,252.6,66.3z M248.2,63.6v-0.2c-2.2,0.2-4.4,0.5-4.4,1.8C243.8,67,248,66.8,248.2,63.6z"/>
			<path class="st0" d="M262.5,67.8c0,0-1,1-2.9,1c-2.4,0-4.4-1.6-4.4-4.1v-5.6h-2.4v-2.4h1.2c0.9,0,1.4-0.5,1.4-1.5v-2.4h3v3.6h3.1
				v2.6h-3.1v5.5c0,0.9,0.7,1.5,1.6,1.5c0.7,0,1.4-0.4,1.4-0.4L262.5,67.8z"/>
			<path class="st0" d="M275.5,56.5v12.2h-2.4l-0.4-1.4h-0.3c-0.5,0.6-1.6,1.5-3.6,1.5c-3.2,0-4.9-2.3-4.9-5.7v-6.6h3.3v5.9
				c0,1.5,0.1,3.6,2.2,3.6c1.1,0,2.9-0.5,2.9-3.8v-5.7L275.5,56.5L275.5,56.5z"/>
			<path class="st0" d="M286.2,56.3v3.1c-0.2-0.1-0.7-0.1-1.1-0.1c-1.7,0-3.5,0.9-3.5,3.1v6.2h-3.2V56.5h2.5l0.4,1.3h0.4
				c0.5-0.5,1.8-1.5,3.8-1.5C285.5,56.3,286.2,56.3,286.2,56.3z"/>
			<path class="st0" d="M299,66.3v2.4h-0.7c-1.4,0-2.4-0.5-2.9-1.6c-0.7,1-1.9,1.7-3.9,1.7c-2.7,0-4.5-1.4-4.5-3.6
				c0-3.8,5.2-4.1,7.5-4.3c-0.1-1.4-0.9-1.9-2.1-1.9c-1.8,0-1.9,1-1.9,1h-3c0.2-2.2,2-3.7,5-3.7c2.9,0,5,1.5,5,5v3.2
				C297.6,66,298.1,66.3,299,66.3z M294.5,63.6v-0.2c-2.2,0.2-4.4,0.5-4.4,1.8C290.2,67,294.4,66.8,294.5,63.6z"/>
			<path class="st0" d="M303.8,51.3v17.3h-3.2V51.3H303.8z"/>
			<path class="st0" d="M236.5,90.7v3H225V76.6h11.2v3h-8v3.9h7.3v3h-7.3v4.1H236.5z"/>
			<path class="st0" d="M250.6,87.1v6.6h-3.2v-5.9c0-0.4,0.3-3.5-2.1-3.6c-1.2-0.1-3.2,0.5-3.2,3.8v5.7h-3.2V81.5h2.5l0.4,1.5h0.4
				c0.5-0.6,1.6-1.6,3.7-1.6C249,81.4,250.6,83.7,250.6,87.1z"/>
			<path class="st0" d="M264.2,81.5l-3.9,12.2h-3.1h-1.6l-3.9-12.2h3.2l2.9,9h0.5l2.9-9H264.2z"/>
			<path class="st0" d="M265.6,78.1c0-1.2,1-2.1,2.1-2.1c1.1,0,2.1,0.9,2.1,2.1c0,1.1-0.9,2.1-2.1,2.1
				C266.5,80.1,265.6,79.2,265.6,78.1z M269.3,93.7h-3.1V81.5h3.1V93.7z"/>
			<path class="st0" d="M280.1,81.4v3.1c-0.2-0.1-0.7-0.1-1.1-0.1c-1.7,0-3.5,0.9-3.5,3.1v6.2h-3.2V81.5h2.5l0.4,1.3h0.4
				c0.5-0.5,1.8-1.5,3.8-1.5C279.4,81.4,280.1,81.4,280.1,81.4z"/>
			<path class="st0" d="M280.8,87.6c0-3.9,3-6.3,6.3-6.3c3.3,0,6.2,2.4,6.2,6.2c0,3.9-3,6.3-6.3,6.3
				C283.7,93.8,280.8,91.4,280.8,87.6z M290.1,87.6c0-1.9-1.1-3.4-3-3.4c-1.9,0-3.1,1.5-3.1,3.4c0,1.9,1.3,3.4,3.1,3.4
				S290.1,89.5,290.1,87.6z"/>
			<path class="st0" d="M307.1,87.1v6.6h-3.2v-5.9c0-0.4,0.3-3.5-2.1-3.6c-1.2-0.1-3.2,0.5-3.2,3.8v5.7h-3.2V81.5h2.5l0.4,1.5h0.4
				c0.5-0.6,1.6-1.6,3.7-1.6C305.6,81.4,307.1,83.7,307.1,87.1z"/>
			<path class="st0" d="M328,87.1v6.6h-3.2v-5.9c0-1.7,0.2-3.8-2.1-3.6c-0.6,0.1-2.2,0.3-2.2,3.8v5.7h-3.2v-5.8
				c0-1.7,0.2-3.8-2.1-3.6c-0.6,0.1-2.2,0.3-2.2,3.8v5.7h-3.2V81.5h2.5l0.4,1.3h0.4c0.5-0.6,1.5-1.4,3-1.5c1.4,0,2.6,0.6,3.3,1.7
				h0.4c0.6-0.7,1.8-1.7,3.7-1.7C326.6,81.3,328,83.7,328,87.1z"/>
			<path class="st0" d="M342.1,88.5h-8.9c0.4,1.9,1.9,2.6,3.2,2.6c1.6,0,2.4-1,2.4-1h3.1c-0.9,2.4-3.2,3.8-5.5,3.8
				c-3.3,0-6.2-2.5-6.2-6.3c0-3.8,2.9-6.1,6.1-6.1C339.3,81.4,342.5,83.5,342.1,88.5z M333.4,86h5.5c-0.4-1.5-1.4-2-2.6-2
				C334.9,84,333.9,84.8,333.4,86z"/>
			<path class="st0" d="M355.9,87.1v6.6h-3.2v-5.9c0-0.4,0.3-3.5-2.1-3.6c-1.2-0.1-3.2,0.5-3.2,3.8v5.7h-3.2V81.5h2.5l0.4,1.5h0.4
				c0.5-0.6,1.6-1.6,3.7-1.6C354.4,81.4,355.9,83.7,355.9,87.1z"/>
			<path class="st0" d="M366.8,92.8c0,0-1,1-2.9,1c-2.4,0-4.4-1.6-4.4-4.1v-5.6h-2.4v-2.4h1.2c0.9,0,1.4-0.5,1.4-1.5v-2.4h3v3.6h3.1
				v2.6h-3.1v5.5c0,0.9,0.7,1.5,1.6,1.5c0.7,0,1.4-0.4,1.4-0.4L366.8,92.8z"/>
			<path class="st0" d="M233.7,118.7l-3.6-6.3h-2v6.3H225v-17.1h6c2.8,0,5.3,1.9,5.3,5.2c0,2.4-1.3,4.1-3.1,5l4.1,6.9H233.7z
				 M228.1,109.4h2.7c1.4,0,2.3-1.1,2.3-2.5c0-1.4-1-2.2-2.3-2.2h-2.7V109.4z"/>
			<path class="st0" d="M249.8,113.6H241c0.4,1.9,1.9,2.6,3.2,2.6c1.6,0,2.4-1,2.4-1h3.1c-0.9,2.4-3.2,3.8-5.5,3.8
				c-3.3,0-6.2-2.5-6.2-6.3c0-3.8,2.9-6.1,6.1-6.1C247.1,106.4,250.3,108.6,249.8,113.6z M241.1,111.1h5.5c-0.4-1.5-1.4-2-2.6-2
				C242.7,109.1,241.6,109.8,241.1,111.1z"/>
			<path class="st0" d="M256.5,108.9c-1,0-1.5,0.5-1.5,1c0,0.9,1.1,1.1,1.8,1.2c2.2,0.5,4.4,1.1,4.4,3.7c0,2.5-2.1,3.9-4.6,3.9
				c-2.8,0-5-1.7-5.1-4.3h3c0.1,0.7,0.5,1.7,2.1,1.7c1.3,0,1.5-0.7,1.5-1.2c0-0.9-0.9-1.2-1.7-1.4c-1.5-0.3-4.6-0.9-4.6-3.7
				c0-2.4,2.3-3.6,4.7-3.6c2.7,0,4.6,1.6,4.7,3.7h-3C258.2,109.7,257.8,108.9,256.5,108.9z"/>
			<path class="st0" d="M274.8,113.6h-8.9c0.4,1.9,1.9,2.6,3.2,2.6c1.6,0,2.4-1,2.4-1h3.1c-0.9,2.4-3.2,3.8-5.5,3.8
				c-3.3,0-6.2-2.5-6.2-6.3c0-3.8,2.9-6.1,6.1-6.1C272,106.4,275.2,108.6,274.8,113.6z M266.1,111.1h5.5c-0.4-1.5-1.4-2-2.6-2
				C267.6,109.1,266.5,109.8,266.1,111.1z"/>
			<path class="st0" d="M288.4,116.4v2.4h-0.7c-1.4,0-2.4-0.5-2.9-1.6c-0.7,1-1.9,1.7-3.9,1.7c-2.7,0-4.5-1.4-4.5-3.6
				c0-3.8,5.2-4.1,7.5-4.3c-0.1-1.4-0.9-1.9-2.1-1.9c-1.8,0-1.9,1-1.9,1h-3c0.2-2.2,2-3.7,5-3.7c2.9,0,5,1.5,5,5v3.2
				C286.9,116,287.4,116.4,288.4,116.4z M283.9,113.6v-0.2c-2.2,0.2-4.4,0.5-4.4,1.8C279.5,117,283.7,116.8,283.9,113.6z"/>
			<path class="st0" d="M298,106.4v3.1c-0.2-0.1-0.7-0.1-1.1-0.1c-1.7,0-3.5,0.9-3.5,3.1v6.2h-3.2v-12.2h2.5l0.4,1.3h0.4
				c0.5-0.5,1.8-1.5,3.8-1.5L298,106.4L298,106.4z"/>
			<path class="st0" d="M304.9,118.8c-3.4,0-6.2-2.6-6.2-6.2c0-3.6,2.9-6.3,6.3-6.3c2.8,0,5.2,1.8,5.8,4.6h-3.3
				c-0.5-1-1.4-1.6-2.6-1.6c-1.7,0-3.1,1.4-3.1,3.3s1.4,3.3,3.1,3.3c1.1,0,1.9-0.5,2.5-1.5h3.3C310,117.3,307.5,118.8,304.9,118.8z"
				/>
			<path class="st0" d="M324.5,112.1v6.6h-3.3v-5.9c0-1.2,0.2-3.6-2-3.6c-1.1,0-3.2,0.5-3.2,3.8v5.7h-3.3v-17.3h3.1v6.4h0.4
				c0.6-0.6,1.7-1.4,3.5-1.4C323,106.4,324.5,108.7,324.5,112.1z"/>
			<path class="st0" d="M347,113.6c-1,3.3-3.7,5.2-7,5.2c-4.5,0-7.7-3.6-7.7-8.7c0-5,3.2-8.7,7.7-8.7c3.3,0,6.1,2,7,5.2h-3.7
				c-0.6-1.4-1.8-2-3.3-2c-2.8,0-4.4,2.2-4.4,5.5c0,3.2,1.6,5.5,4.4,5.5c1.5,0,2.6-0.7,3.2-2L347,113.6L347,113.6z"/>
			<path class="st0" d="M348.4,112.6c0-3.9,3-6.3,6.3-6.3s6.2,2.4,6.2,6.2c0,3.9-3,6.3-6.3,6.3C351.2,118.8,348.4,116.5,348.4,112.6
				z M357.7,112.6c0-1.9-1.1-3.4-3-3.4c-1.9,0-3.1,1.5-3.1,3.4c0,1.9,1.3,3.4,3.1,3.4S357.7,114.5,357.7,112.6z"/>
			<path class="st0" d="M374.6,106.5v12.2h-2.4l-0.4-1.4h-0.3c-0.5,0.6-1.6,1.5-3.6,1.5c-3.2,0-4.9-2.3-4.9-5.7v-6.6h3.3v5.9
				c0,1.5,0.1,3.6,2.2,3.6c1.1,0,2.9-0.5,2.9-3.8v-5.7L374.6,106.5L374.6,106.5z"/>
			<path class="st0" d="M389.3,112.1v6.6H386v-5.9c0-0.4,0.3-3.5-2.1-3.6c-1.2-0.1-3.2,0.5-3.2,3.8v5.7h-3.2v-12.2h2.5l0.4,1.5h0.4
				c0.5-0.6,1.6-1.6,3.7-1.6C387.7,106.4,389.3,108.7,389.3,112.1z"/>
			<path class="st0" d="M397.5,118.8c-3.4,0-6.2-2.6-6.2-6.2c0-3.6,2.9-6.3,6.3-6.3c2.8,0,5.2,1.8,5.8,4.6h-3.3
				c-0.5-1-1.4-1.6-2.6-1.6c-1.7,0-3.1,1.4-3.1,3.3s1.4,3.3,3.1,3.3c1.1,0,1.9-0.5,2.5-1.5h3.3C402.6,117.3,400.1,118.8,397.5,118.8
				z"/>
			<path class="st0" d="M405.4,103.1c0-1.2,1-2.1,2.1-2.1c1.1,0,2.1,0.9,2.1,2.1c0,1.1-0.9,2.1-2.1,2.1
				C406.3,105.1,405.4,104.2,405.4,103.1z M409,118.7h-3.1v-12.2h3.1V118.7z"/>
			<path class="st0" d="M414.9,101.3v17.3h-3.2v-17.3H414.9z"/>
		</g>
	</g>
	<g>
		<rect x="33.8" y="42.1" class="st1" width="86.1" height="86.1"/>
		<path class="st0" d="M110.4,51.6h-10L86.9,65.9V51.6H67.4v19.1c0,4.1-3,6.4-7,6.4s-7-2.4-7-6.4V51.6h-10v19.2
			c0,8.6,6.9,13.5,14.8,14.3H43.3v33.6h10v-12.5h4.4l9.3,12.5h43.4v-6.8H98.6v-20h11.8v-8.9L96,68.4l14.4-14.7
			C110.4,53.7,110.4,51.6,110.4,51.6z M76.9,74.9v15.6c-2.1-3.6-7-5.3-14.3-5.3C69,84.5,75.1,81,76.9,74.9z M53.3,91.9h9.2
			c3.8,0,5.3,1.5,5.3,3.8s-1.5,3.8-5.3,3.8h-9.2V91.9z M88.6,111.9H76.9v4.7l-8.3-10.9c6.3-1.1,9.5-4.4,9.5-10
			c0-1.4-0.2-2.7-0.6-3.8h11.1V111.9z M100.4,85.1H86.9V70.7L100.4,85.1z"/>
	</g>
	<g>
		<path class="st2" d="M171.4,42.1c15.7,6.5,27.3,15.8,34.6,28.1V42.1H171.4z"/>
		<g>
			<path class="st3" d="M171.4,42.1c-13.9-5.8-30.8-9.3-50.8-10.8h-0.7v53c12.8,4.4,18.3,13.3,18.3,25.2c0,7.5-2.2,13.9-6.9,18.7
				H206v-58C198.7,57.9,187.1,48.6,171.4,42.1"/>
		</g>
		<path class="st2" d="M119.9,84.3v43.9h11.4c4.7-4.8,6.9-11.2,6.9-18.7C138.2,97.6,132.7,88.7,119.9,84.3z"/>
	</g>
</g>
</svg>
