<?xml version="1.0" encoding="utf-8"?>
<!-- Generator: Adobe Illustrator 24.0.1, SVG Export Plug-In . SVG Version: 6.00 Build 0)  -->
<svg version="1.1" id="Layer_1" xmlns="http://www.w3.org/2000/svg" xmlns:xlink="http://www.w3.org/1999/xlink" x="0px" y="0px"
	 viewBox="0 0 226.77 226.77" style="enable-background:new 0 0 226.77 226.77;" xml:space="preserve">
<style type="text/css">
	.st0{fill:#002E40;}
	.st1{fill:#AD9C70;}
</style>
<g>
	<g>
		<path class="st0" d="M13.54,104.44c4.54-51.1,47.59-91.3,99.85-91.3c52.26,0,95.3,40.2,99.85,91.3h9.69
			C218.35,48.01,170.97,3.49,113.39,3.49S8.42,48.01,3.85,104.44H13.54z"/>
		<path class="st0" d="M213.23,122.34c-4.54,51.1-47.59,91.3-99.85,91.3c-52.26,0-95.3-40.2-99.85-91.3H3.85
			c4.57,56.43,51.95,100.95,109.53,100.95s104.96-44.52,109.53-100.95H213.23z"/>
		<path class="st0" d="M75.49,117.59c3.96-1.29,5.32-3.94,5.32-10.4c0-8.23-2.13-11.08-8.57-11.63c-1.77-0.14-1.77-0.14-11.12-0.2
			H32.79v45.35h28.38c13.25-0.07,13.9-0.14,16.14-1.02c3.49-1.36,4.97-4.69,4.97-11.15C82.29,121.26,80.69,118.61,75.49,117.59z
			 M44.2,106.03h16.91c5.44,0.07,5.62,0.07,6.27,0.2c1.24,0.34,1.77,1.36,1.77,3.26c0,1.63-0.41,2.79-1.3,3.2
			c-0.77,0.41-2.48,0.54-6.74,0.54H44.2V106.03z M69.22,129.29c-0.89,0.48-0.89,0.48-8.04,0.54H44.2v-7.55h16.97
			c6.98,0.07,6.98,0.07,7.57,0.2c1.36,0.34,1.89,1.29,1.89,3.4C70.64,127.79,70.22,128.81,69.22,129.29z"/>
		<path class="st0" d="M112.31,124.05h15.79v1.29c0,5.03-0.35,5.17-14.37,5.17l-7.04-0.14c-3.37-0.14-4.43-0.34-5.44-1.29
			c-1.3-1.22-1.66-3.54-1.66-11.22c0-11.76,0.06-11.83,14.25-11.83c8.99,0,11.77,0.27,12.95,1.22c0.77,0.61,0.89,1.16,0.95,3.81h12
			c-0.06-6.66-0.53-9.45-2.19-11.7c-2.6-3.6-8.04-4.69-22.71-4.69c-25.55,0-27.26,1.43-27.26,22.64c0,14.89,0.65,18.22,4.14,20.88
			c3.31,2.58,7.51,3.2,21.05,3.2c10.7,0,14.84-0.27,18.86-1.22c4.73-1.09,7.27-4.22,7.75-9.52c0.18-2.18,0.41-9.93,0.41-14.42v-1.22
			h-27.5V124.05z"/>
		<path class="st0" d="M190.26,115.07c-2.54-1.84-5.09-2.18-18.09-2.65c-8.34-0.27-11.59-0.48-12.65-0.82
			c-1.24-0.34-1.77-1.22-1.77-2.92c0-3.33,0.83-3.6,11-3.6c8.52,0,9.99,0.14,11,0.82c0.89,0.61,1.06,1.22,1.18,3.74h11.59
			c0.06-0.88,0.06-1.84,0.06-2.11c0-5.37-0.95-8.23-3.31-10.06c-2.78-2.18-6.92-2.79-18.39-2.79c-9.46,0-14.9,0.27-17.21,0.82
			c-5.44,1.36-7.57,5.24-7.57,13.87c0,10,2.72,12.85,12.48,13.19l3.19,0.14l6.39,0.34l9.46,0.41c3.84,0.07,4.73,0.75,4.73,3.47
			c0,4.01,0,4.01-12.89,4.01c-8.46,0-9.76-0.14-10.88-0.95c-0.95-0.68-1.18-1.56-1.18-4.28h-11.65v2.18c0,6.26,0.89,8.91,3.61,10.88
			c2.78,2.04,7.57,2.65,19.81,2.65c11.77,0,16.73-0.34,19.1-1.36c4.08-1.77,5.74-5.64,5.74-13.53
			C193.98,120.17,192.98,117.11,190.26,115.07z"/>
	</g>
	<g>
		<path class="st1" d="M148.12,54.88c-0.5-3.63-2.67-7-5.88-8.81c-1.93-1.09-4.15-1.52-6.4-1.52c-0.14,0-0.28,0.02-0.41,0.02
			c-0.41,0.01-0.83,0.03-1.24,0.07c-0.24,0.02-0.49,0.05-0.73,0.08c-0.4,0.05-0.79,0.11-1.18,0.18c-0.28,0.05-0.56,0.1-0.84,0.16
			c-0.35,0.07-0.69,0.16-1.03,0.24c-0.35,0.09-0.68,0.18-1.02,0.28c-0.26,0.08-0.53,0.16-0.78,0.25c-0.17,0.06-0.34,0.1-0.5,0.16
			c-1.39,0.49-2.79,0.91-4.18,1.26c-0.16,0.04-0.32,0.09-0.48,0.12c-0.6,0.14-1.2,0.27-1.8,0.39c-0.2,0.04-0.41,0.08-0.61,0.12
			c-0.59,0.11-1.19,0.2-1.79,0.28c-0.55,0.08-1.1,0.16-1.65,0.22c0,0-1.21-4.51-1.36-5.03c0.03-0.01,5.29,2.41,5.43,2.44
			c0,0,0-3.3,0-5.07c0-1.77,0-5.07,0-5.07c-0.14,0.04-5.4,2.46-5.41,2.44c0.16-0.67,2.24-6.19,2.31-6.37h-5.17h0h-5.17
			c0.07,0.18,2.14,5.7,2.31,6.37c-0.01,0.01-5.27-2.41-5.41-2.44c0,0,0,3.3,0,5.07c0,1.77,0,5.07,0,5.07
			c0.14-0.04,5.4-2.46,5.43-2.44c-0.14,0.52-1.36,5.03-1.36,5.03c-0.55-0.06-1.1-0.14-1.65-0.22c-0.6-0.08-1.19-0.18-1.79-0.28
			c-0.2-0.04-0.41-0.08-0.61-0.12c-0.6-0.12-1.2-0.24-1.8-0.39c-0.16-0.04-0.32-0.08-0.48-0.12c-1.4-0.35-2.79-0.76-4.18-1.26
			c-0.16-0.06-0.34-0.1-0.5-0.16c-0.26-0.09-0.52-0.17-0.78-0.25c-0.34-0.1-0.67-0.19-1.02-0.28c-0.34-0.09-0.68-0.17-1.03-0.24
			c-0.28-0.06-0.56-0.11-0.84-0.16c-0.39-0.07-0.79-0.13-1.18-0.18c-0.24-0.03-0.49-0.05-0.73-0.08c-0.41-0.04-0.83-0.06-1.24-0.07
			c-0.14,0-0.28-0.02-0.41-0.02c-2.25,0-4.47,0.43-6.4,1.52c-3.21,1.81-5.38,5.18-5.88,8.81c-0.38,2.73,0.48,5.29,1.11,7.91
			c0.36,1.47,0.71,2.94,1.07,4.41c0,0,0,0,0,0c0.84,3.47,1.68,6.95,2.53,10.42c0.01,0.05,0.17,0.85,0.21,0.85
			c0.45,1.96,0.91,3.91,1.36,5.85c0,0,0.01,0,0.01,0c0.01,0.05,0.05,0.08,0.1,0.08c0.04,0,0.07-0.02,0.09-0.05c0,0,0.01,0,0.01,0
			c3.14-4.48,9.43-5.59,21.95-5.83c0,0,0.73,0,0.73,0h1.63c0.09-1.4-0.01-2.62-0.01-2.68c-0.1-2.54-2.18-4.57-4.74-4.57
			c-0.12,0-0.66,0.03-0.92,0.1c-0.81,0.13-1.71,0.42-2.66,1.03c-0.12-4.16,2.55-5.15,3.8-5.39c1.38-0.19,2.77,0.05,3.71,0.67
			c1.26,0.82,2.49,2.18,3.05,4.78v-0.29c0-5.21-2.08-5.66-2-9.59c0.08-3.91,3.68-6.36,3.71-6.39c0.03,0.02,3.63,2.47,3.71,6.39
			c0.08,3.93-2,4.38-2,9.59v0.29c0.57-2.6,1.79-3.96,3.05-4.78c0.94-0.62,2.33-0.85,3.71-0.67c1.25,0.24,3.92,1.24,3.8,5.39
			c-0.95-0.6-1.85-0.9-2.66-1.03c-0.26-0.07-0.8-0.1-0.92-0.1c-2.56,0-4.64,2.03-4.74,4.57c0,0.05-0.09,1.28-0.01,2.68h1.63
			c0,0,0.73,0,0.73,0c12.51,0.24,18.81,1.35,21.95,5.83c0,0,0.01,0,0.01,0c0.02,0.03,0.05,0.05,0.09,0.05c0.05,0,0.09-0.04,0.1-0.08
			c0,0,0.01,0,0.01,0c0.45-1.94,0.9-3.89,1.36-5.85c0.03,0,0.2-0.8,0.21-0.85c0.85-3.47,1.69-6.94,2.53-10.42c0,0,0,0,0,0
			c0.36-1.47,0.71-2.94,1.07-4.41C147.65,60.18,148.5,57.61,148.12,54.88z M93.39,72.86c-1.88,0-3.41-1.53-3.41-3.41
			c0-1.88,1.53-3.41,3.41-3.41c1.88,0,3.41,1.52,3.41,3.41C96.79,71.34,95.27,72.86,93.39,72.86z M105.96,57.22l-6.92,0.04
			c-4.38-0.01-9.67,1.22-12.04,6.43c-2.15-2.09-3.01-4.8-3.21-5.53c-0.19-0.95-0.29-1.82-0.19-2.6c0.3-2.17,1.6-4.14,3.38-5.14
			c1.03-0.58,2.36-0.88,3.95-0.88c1.84,0,3.94,0.4,6.08,1.16c1.85,0.66,3.69,1.19,5.54,1.62l0.01,0.01c0,0,1.33,0.35,3.4,0.58V57.22
			z M133.39,72.86c-1.88,0-3.41-1.53-3.41-3.41c0-1.88,1.52-3.41,3.41-3.41c1.88,0,3.41,1.52,3.41,3.41
			C136.79,71.34,135.27,72.86,133.39,72.86z M142.99,58.17c-0.2,0.73-1.06,3.44-3.21,5.53c-2.37-5.21-7.67-6.44-12.04-6.43
			l-6.92-0.04V52.9c2.07-0.23,3.4-0.58,3.4-0.58l0.01-0.01c1.85-0.43,3.69-0.96,5.54-1.62c2.13-0.76,4.23-1.16,6.08-1.16
			c1.59,0,2.92,0.3,3.95,0.88c1.79,1.01,3.08,2.98,3.38,5.14C143.28,56.34,143.18,57.22,142.99,58.17z"/>
		<path class="st1" d="M105.15,161.84c8.15,3.02,16,6.91,23.38,11.58h49.36c3.41-3.59,6.52-7.48,9.27-11.58H105.15z"/>
		<path class="st1" d="M151.75,192.37c6.35-3.01,12.33-6.78,17.8-11.22H139.4C143.75,184.61,147.9,188.37,151.75,192.37z"/>
		<path class="st1" d="M61.92,173.42c25.3,0,49.78,9.15,68.96,25.76c4.51-0.86,8.94-2.07,13.19-3.61
			c-22.07-21.76-51.2-33.73-82.15-33.73c-6.48,0-12.98,0.54-19.35,1.6c2.6,3.69,5.52,7.23,8.69,10.52
			C54.81,173.6,58.4,173.42,61.92,173.42z"/>
		<path class="st1" d="M120.28,200.54c-16.99-12.7-37.13-19.4-58.35-19.4c-0.87,0-1.78,0.02-2.78,0.05
			c15.57,12.63,35.1,19.57,55.18,19.57C116.22,200.76,118.18,200.69,120.28,200.54z"/>
	</g>
</g>
</svg>
