<?xml version="1.0" encoding="UTF-8"?>
<svg width="32px" height="32px" viewBox="0 0 32 32" version="1.1" xmlns="http://www.w3.org/2000/svg" xmlns:xlink="http://www.w3.org/1999/xlink">
    <!-- Generator: Sketch 59.1 (86144) - https://sketch.com -->
    <title>Icon/Social/Footer/Facebook Copy 8</title>
    <desc>Created with Sketch.</desc>
    <g id="UI-toolkit" stroke="none" stroke-width="1" fill="none" fill-rule="evenodd">
        <g id="Buttons" transform="translate(-537.000000, -4271.000000)">
            <g id="Icon/Social/Footer/Youtube" transform="translate(538.000000, 4272.000000)">
                <circle id="Oval" stroke="#FFFFFF" stroke-width="1" fill="#0B153A" cx="15" cy="15" r="15"></circle>
                <path d="M24.15,9.34909091 C23.6075,8.36654545 23.01875,8.18581818 21.82,8.11709091 C20.6225,8.03436364 17.61125,8 15.0025,8 C12.38875,8 9.37625,8.03436364 8.18,8.11581818 C6.98375,8.18581818 6.39375,8.36527273 5.84625,9.34909091 C5.2875,10.3303636 5,12.0205455 5,14.9961818 C5,14.9987273 5,15 5,15 C5,15.0025455 5,15.0038182 5,15.0038182 L5,15.0063636 C5,17.9692727 5.2875,19.6721818 5.84625,20.6432727 C6.39375,21.6258182 6.9825,21.804 8.17875,21.8867273 C9.37625,21.958 12.38875,22 15.0025,22 C17.61125,22 20.6225,21.958 21.82125,21.888 C23.02,21.8052727 23.60875,21.6270909 24.15125,20.6445455 C24.715,19.6734545 25,17.9705455 25,15.0076364 C25,15.0076364 25,15.0038182 25,15.0012727 C25,15.0012727 25,14.9987273 25,14.9974545 C25,12.0205455 24.715,10.3303636 24.15,9.34909091 Z M13,19 L13,11 L19,15 L13,19 Z" id="Shape" fill="#FFFFFF"></path>
            </g>
        </g>
    </g>
</svg>