<?xml version="1.0" encoding="UTF-8"?>
<svg width="30px" height="30px" viewBox="0 0 30 30" version="1.1" xmlns="http://www.w3.org/2000/svg" xmlns:xlink="http://www.w3.org/1999/xlink">
    <!-- Generator: Sketch 59.1 (86144) - https://sketch.com -->
    <title>Icon/Social/Footer/Facebook Copy 2</title>
    <desc>Created with Sketch.</desc>
    <g id="UI-toolkit" stroke="none" stroke-width="1" fill="none" fill-rule="evenodd">
        <g id="Buttons" transform="translate(-182.000000, -4272.000000)">
            <g id="Icon/Social/Footer/Twitter" transform="translate(182.000000, 4272.000000)">
                <circle id="Oval" fill="#FFFFFF" cx="15" cy="15" r="15"></circle>
                <path d="M23.7296263,9.62863415 C23.3519129,9.79445618 22.9598171,9.92527545 22.5574838,10.019984 C23.000809,9.60290527 23.3341318,9.08122858 23.5221803,8.49894335 L23.5221803,8.49894335 C23.5758551,8.33271097 23.393485,8.18896572 23.2418691,8.27797041 L23.2418691,8.27797041 C22.6821586,8.60665996 22.0792595,8.85323868 21.4498754,9.0109358 C21.4133599,9.02008658 21.3756839,9.02472353 21.3378835,9.02472353 C21.223239,9.02472353 21.111786,8.98258068 21.024124,8.90609163 C20.3544941,8.32179569 19.4932511,8 18.5990987,8 C18.2121839,8 17.8215388,8.05970578 17.4379812,8.17747594 C16.2495912,8.54239931 15.3326424,9.51291573 15.0449536,10.7103141 C14.9370236,11.1594411 14.9078029,11.6089784 14.9580376,12.0464105 C14.9637989,12.0966782 14.9398006,12.1317631 14.9250038,12.1482181 C14.899016,12.1770656 14.862169,12.1936027 14.8239127,12.1936027 C14.8196436,12.1936027 14.8152501,12.1933975 14.8108981,12.1929871 C12.209554,11.9537126 9.86377677,10.7129404 8.20565928,8.69927573 L8.20565928,8.69927573 C8.12110585,8.59656538 7.95896223,8.60916309 7.89156818,8.72360943 L7.89156818,8.72360943 C7.56686646,9.27511849 7.39527274,9.90590697 7.39527274,10.5477749 C7.39527274,11.5314635 7.79445609,12.4584829 8.4878356,13.1342867 C8.19625064,13.0658405 7.91403286,12.9580418 7.6518758,12.8138862 L7.6518758,12.8138862 C7.52504567,12.7441269 7.36899487,12.8337881 7.36721261,12.9774103 L7.36721261,12.9774103 C7.3490585,14.4387452 8.21324422,15.7390591 9.50782344,16.3245861 C9.4817528,16.3252016 9.45568216,16.3254888 9.42957008,16.3254888 C9.22436223,16.3254888 9.01658463,16.3058741 8.8120814,16.2671782 L8.8120814,16.2671782 C8.66925243,16.2401773 8.54926118,16.3743204 8.59361028,16.511418 L8.59361028,16.511418 C9.01380763,17.8102136 10.1433419,18.7675578 11.4950361,18.9849197 C10.3732111,19.7304828 9.06681931,20.1237613 7.70712566,20.1237613 L7.28323946,20.123515 C7.15263758,20.123515 7.04217931,20.2078007 7.00889676,20.3330392 C6.97611158,20.4563902 7.03650096,20.5865118 7.14787109,20.6506494 C8.68002885,21.5334332 10.4276735,22 12.2026322,22 C13.7563014,22 15.2096255,21.6947414 16.5222759,21.0927594 C17.7256287,20.540881 18.7890123,19.7519851 19.6828746,18.7479842 C20.51556,17.8127167 21.1667043,16.7330475 21.6181532,15.5390139 C22.0485053,14.4008289 22.2759706,13.18636 22.2759706,12.0268779 L22.2759706,11.9716449 C22.2759291,11.7854695 22.3609799,11.6102916 22.5093629,11.4910441 C23.0724307,11.0384292 23.5627576,10.505632 23.966666,9.9074663 L23.966666,9.9074663 C24.0733111,9.74952297 23.9051161,9.55157061 23.7296263,9.62863415 L23.7296263,9.62863415 Z" id="Path" fill="#0B153A"></path>
            </g>
        </g>
    </g>
</svg>