<?xml version="1.0" encoding="UTF-8"?>
<svg width="30px" height="30px" viewBox="0 0 30 30" version="1.1" xmlns="http://www.w3.org/2000/svg" xmlns:xlink="http://www.w3.org/1999/xlink">
    <!-- Generator: Sketch 59.1 (86144) - https://sketch.com -->
    <title>Icon/Social/Footer/Facebook Copy</title>
    <desc>Created with Sketch.</desc>
    <g id="UI-toolkit" stroke="none" stroke-width="1" fill="none" fill-rule="evenodd">
        <g id="Buttons" transform="translate(-139.000000, -4272.000000)">
            <g id="Icon/Social/Footer/LinkedIn" transform="translate(139.000000, 4272.000000)">
                <circle id="Oval" fill="#FFFFFF" cx="15" cy="15" r="15"></circle>
                <rect id="Rectangle" fill="#0B153A" x="7" y="11" width="4" height="11"></rect>
                <path d="M22.8616605,12.2314006 C22.1029592,11.4105175 21.0994846,11 19.85185,11 C19.392167,11 18.9743081,11.0560453 18.5984652,11.1682119 C18.2227372,11.2803025 17.9053945,11.4375712 17.6462837,11.6400942 C17.3873262,11.8426172 17.1810803,12.0306254 17.0279676,12.2041189 C16.8823687,12.368911 16.73999,12.5608709 16.6010615,12.7780226 L16.6010615,11.2493351 L13,11.2493351 L13.0110407,11.7701193 C13.0184395,12.1173721 13.0220813,13.1876662 13.0220813,14.9811536 C13.0220813,16.7747929 13.0147976,19.1143324 13.0001533,22 L16.6010615,22 L16.6010615,16.0007979 C16.6010615,15.6320389 16.640969,15.3391975 16.7213972,15.1220457 C16.8747399,14.7530207 17.1061724,14.4440687 17.4164613,14.1946576 C17.7267119,13.9449426 18.1114871,13.8201991 18.5713235,13.8201991 C19.1986485,13.8201991 19.660325,14.035337 19.9558931,14.4656509 C20.2513461,14.8959267 20.3990918,15.4908048 20.3990918,16.250209 L20.3990918,21.999658 L24,21.999658 L24,15.8382476 C23.9997317,14.2542366 23.6205918,13.0520176 22.8616605,12.2314006 Z" id="Path" fill="#0B153A"></path>
                <path d="M9.01068967,6 C8.41259061,6 7.92796984,6.18922573 7.55671375,6.56730848 C7.18549552,6.94547317 7,7.42290045 7,8.00004097 C7,8.56911102 7.1801567,9.04489963 7.54050797,9.42687423 C7.90074565,9.8088898 8.3764684,10 8.96741116,10 L8.98903148,10 C9.59447614,10 10.0828076,9.80905367 10.4539122,9.42687423 C10.8250169,9.04489963 11.0069532,8.56927489 10.9997969,8.00004097 C10.9926027,7.42294142 10.8086975,6.94547317 10.4484598,6.56730848 C10.08826,6.18906186 9.60882658,6 9.01068967,6 Z" id="Path" fill="#0B153A"></path>
            </g>
        </g>
    </g>
</svg>