<?xml version="1.0" encoding="UTF-8"?>
<svg width="32px" height="32px" viewBox="0 0 32 32" version="1.1" xmlns="http://www.w3.org/2000/svg" xmlns:xlink="http://www.w3.org/1999/xlink">
    <!-- Generator: Sketch 59.1 (86144) - https://sketch.com -->
    <title>Icon/Social/Footer/Facebook Copy 5</title>
    <desc>Created with Sketch.</desc>
    <g id="UI-toolkit" stroke="none" stroke-width="1" fill="none" fill-rule="evenodd">
        <g id="Buttons" transform="translate(-408.000000, -4271.000000)">
            <g id="Icon/Social/Footer/Facebook" transform="translate(409.000000, 4272.000000)">
                <circle id="Oval" stroke="#FFFFFF" stroke-width="1" fill="#0B153A" cx="15" cy="15" r="15"></circle>
                <path d="M12.1614472,8.87336322 C12.1614472,9.37737148 12.1614472,11.6269716 12.1614472,11.6269716 L10,11.6269716 L10,14.9940946 L12.1614472,14.9940946 L12.1614472,25 L16.6015185,25 L16.6015185,14.9943736 L19.5810125,14.9943736 C19.5810125,14.9943736 19.8600552,13.3798638 19.9953169,11.6145562 C19.6075169,11.6145562 16.6183079,11.6145562 16.6183079,11.6145562 C16.6183079,11.6145562 16.6183079,9.65567108 16.6183079,9.31231865 C16.6183079,8.96822223 17.1024103,8.50536604 17.580883,8.50536604 C18.058459,8.50536604 19.0664202,8.50536604 20,8.50536604 C20,8.04692731 20,6.46292129 20,5 C18.7536991,5 17.3358177,5 16.7108239,5 C12.0516934,4.9997675 12.1614472,8.37023845 12.1614472,8.87336322 Z" id="Facebook" fill="#FFFFFF"></path>
            </g>
        </g>
    </g>
</svg>