<?xml version="1.0" encoding="UTF-8"?>
<svg width="30px" height="30px" viewBox="0 0 30 30" version="1.1" xmlns="http://www.w3.org/2000/svg" xmlns:xlink="http://www.w3.org/1999/xlink">
    <!-- Generator: Sketch 59.1 (86144) - https://sketch.com -->
    <title>Icon/Navigation/Close</title>
    <desc>Created with Sketch.</desc>
    <g id="Symbols" stroke="none" stroke-width="1" fill="none" fill-rule="evenodd">
        <g id="Navigation/320/Search-header" transform="translate(-273.000000, -22.000000)" stroke="#0B153A">
            <g id="Icon/Navigation/Close">
                <g transform="translate(267.000000, 21.000000)">
                    <g id="Group" transform="translate(8.200000, 2.727273)">
                        <ellipse id="Oval" stroke-width="3" fill="#FFFFFF" cx="12.9833333" cy="12.9545455" rx="12.9833333" ry="12.9545455"></ellipse>
                        <path d="M14.0711312,12.9546734 L18.9079534,8.12837458 C19.20846,7.82877768 19.20846,7.34266828 18.9079534,7.04307138 C18.6074469,6.74321863 18.1207903,6.74321863 17.8202838,7.04307138 L12.9834615,11.8693702 L8.14638288,7.04307138 C7.84587633,6.74321863 7.35921981,6.74321863 7.05871325,7.04307138 C6.75820669,7.34266828 6.75820669,7.82877768 7.05871325,8.12837458 L11.8957919,12.9546734 L7.05871325,17.7809722 C6.75820669,18.0805691 6.75820669,18.5666785 7.05871325,18.8662754 C7.20896653,19.0159459 7.4058855,19.0909091 7.60254807,19.0909091 C7.79921063,19.0909091 7.99612961,19.0159459 8.14638288,18.8660195 L12.9834615,14.0397207 L17.8202838,18.8660195 C17.9705371,19.0159459 18.167456,19.0909091 18.3641186,19.0909091 C18.5607812,19.0909091 18.7577001,19.0159459 18.9079534,18.8660195 C19.20846,18.5664226 19.20846,18.0803132 18.9079534,17.7807163 L14.0711312,12.9546734 Z" id="Path" fill="#0B153A"></path>
                    </g>
                </g>
            </g>
        </g>
    </g>
</svg>