<?xml version="1.0" encoding="UTF-8"?>
<svg width="25px" height="26px" viewBox="0 0 25 26" version="1.1" xmlns="http://www.w3.org/2000/svg" xmlns:xlink="http://www.w3.org/1999/xlink">
    <!-- Generator: Sketch 59.1 (86144) - https://sketch.com -->
    <title>Icon/Search</title>
    <desc>Created with Sketch.</desc>
    <g id="Symbols" stroke="none" stroke-width="1" fill="none" fill-rule="evenodd">
        <g id="Navigation/320/Header/Standard" transform="translate(-225.000000, -23.000000)" fill="#0B153A">
            <g id="Navigation/Header/Standard/320">
                <g id="Icon/Search" transform="translate(225.000000, 23.500000)">
                    <path d="M24.6198914,22.7710389 L18.4569637,16.5826985 C20.0415607,14.7640698 20.9097708,12.4758628 20.9097708,10.0937401 C20.9097708,4.52813959 16.2196183,0 10.4548854,0 C4.69015249,0 0,4.52813959 0,10.0937401 C0,15.6593407 4.69015249,20.1874803 10.4548854,20.1874803 C12.6190467,20.1874803 14.6813864,19.5572798 16.4446256,18.3609521 L22.6543729,24.5962504 C22.9139268,24.8564933 23.2630291,25 23.6371322,25 C23.9912346,25 24.3271546,24.8696591 24.5821629,24.6326756 C25.1239987,24.1293052 25.141272,23.2945968 24.6198914,22.7710389 Z M10.4548854,2.6331496 C14.715933,2.6331496 18.1824094,5.97988274 18.1824094,10.0937401 C18.1824094,14.2075975 14.715933,17.5543307 10.4548854,17.5543307 C6.19383775,17.5543307 2.7273614,14.2075975 2.7273614,10.0937401 C2.7273614,5.97988274 6.19383775,2.6331496 10.4548854,2.6331496 Z" id="Shape"></path>
                </g>
            </g>
        </g>
    </g>
</svg>